<svg xmlns="http://www.w3.org/2000/svg" width="24" height="25" viewBox="0 0 24 25" fill="none">
  <path fill-rule="evenodd" clip-rule="evenodd" d="M8.53162 2.94849C10.7165 1.67899 13.402 1.70118 15.5664 3.00661C17.7095 4.33863 19.012 6.71589 18.9998 9.27316C18.95 11.8137 17.5533 14.2017 15.8075 16.0478C14.7998 17.1181 13.6726 18.0645 12.4488 18.8678C12.3228 18.9406 12.1848 18.9894 12.0415 19.0117C11.9036 19.0058 11.7693 18.9651 11.6508 18.8932C9.78243 17.6863 8.14334 16.1458 6.81233 14.3457C5.69859 12.8431 5.06584 11.0277 5 9.14614C4.99856 6.58396 6.34677 4.21799 8.53162 2.94849ZM9.79416 10.2065C10.1617 11.1126 11.0292 11.7036 11.9916 11.7036C12.6221 11.7081 13.2282 11.4555 13.6748 11.0022C14.1214 10.5488 14.3715 9.93236 14.3692 9.2901C14.3726 8.30975 13.7955 7.42403 12.9073 7.04649C12.0191 6.66895 10.995 6.87407 10.3133 7.56607C9.63159 8.25806 9.42664 9.30044 9.79416 10.2065Z" fill="#8A92A6"/>
  <ellipse opacity="0.4" cx="12" cy="21.0117" rx="5" ry="1" fill="#8A92A6"/>
</svg>