<svg xmlns="http://www.w3.org/2000/svg" version="1.1" xmlns:xlink="http://www.w3.org/1999/xlink" xmlns:svgjs="http://svgjs.dev/svgjs" viewBox="0 0 600 600"><path d="M103.39957109621571 238.02300395326017C102.09204037518705 195.52823390321134 -15.585780466284291 174.73849365866383 19.456059133325084 168.20083751038908C54.49789873293446 161.66318136211436 312.34307797284333 156.3022970135629 313.65060869387196 198.79706706361173C314.9581394149006 241.29183711366056 62.343083059106334 416.6318016624073 27.30124345949696 423.16945781068205C-7.740596140112416 429.70711395895677 104.70710181724436 280.517774003309 103.39957109621571 238.02300395326017C102.09204037518705 195.52823390321134 -15.585780466284291 174.73849365866383 19.456059133325084 168.20083751038908 " fill="hsl(340, 45%, 50%)"></path><path d="M287.7615693889567 101.51673323011795C286.454038667928 59.02196318006912 168.77621782645667 38.232222935521605 203.81805742606605 31.694566787246856C238.85989702567542 25.156910638972136 496.70507626558424 19.796026290420684 498.0126069866129 62.29079634046951C499.3201377076415 104.78556639051834 246.7050813518473 280.1255309392651 211.66324175223792 286.6631870875398C176.62140215262855 293.20084323581455 289.06910010998536 144.01150328016678 287.7615693889567 101.51673323011795C286.454038667928 59.02196318006912 168.77621782645667 38.232222935521605 203.81805742606605 31.694566787246856 " fill-opacity="1" fill="hsl(340, 45%, 50%)" opacity="1" stroke-opacity="1" stroke-width="0" stroke="hsl(340, 45%, 30%)" transform="matrix(1,0,0,1,75,75)"></path></svg>